<svg id="Capa_1" enable-background="new 0 0 512 512" height="512" viewBox="0 0 512 512" width="512" xmlns="http://www.w3.org/2000/svg"><g><g><g><g><g><g><path d="m360.257 196.19c-17.828-14.83-42.981-17.058-63.138-5.593-16.187 9.207-32.177 18.272-32.177 18.272.019.005.028.007.047.011-2.48 80.645 64.156 54.493 68.765 120.551l13.417 13.744 55.63-11.847 11.366-20.972c-.456-13.177-2.355-26.281-5.81-39.038-6.326-23.361-19.133-51.032-48.1-75.128z" fill="#fb74c4"/><path d="m333.755 329.431-60.589 10.981-124.934 23.017-6.582 4.771-.644 19.445 6.052 5.743h227.055c18.262.048 33.993-12.863 37.508-30.784l2.246-33.661c.413-6.193.515-12.398.3-18.586-5.985 5.153-38.376 30.688-80.412 19.074z" fill="#0e80ac"/></g><g><path d="m408.357 271.318c-6.326-23.361-19.133-51.032-48.1-75.128-15.844-13.18-37.472-16.397-56.239-8.903 5.332 2.128 10.391 5.097 14.966 8.903 28.966 24.096 41.774 51.767 48.1 75.128 3.454 12.756 5.354 25.86 5.81 39.038.214 6.189.113 12.393-.3 18.586l-.597 8.946 30.804-6.56 11.366-20.972c-.456-13.178-2.355-26.281-5.81-39.038z" fill="#fd4eb4"/><g><path d="m414.167 310.356c-3.959 3.409-19.476 15.727-41.689 20.322l-2.13 31.925c-3.515 17.921-19.245 30.832-37.508 30.784h41.273c18.262.048 33.993-12.863 37.508-30.784l2.246-33.661c.413-6.193.514-12.397.3-18.586z" fill="#057195"/></g></g><path d="m148.232 363.429-.523.111c-12.614 2.68-25.195-5.074-28.232-17.607-.021-.085-.041-.171-.061-.256l-1.195-5.486c-1.082-4.969-5.481-8.513-10.567-8.513-5.975 0-10.818 4.846-10.814 10.821l.02 32.899c-.534 9.701 7.173 17.868 16.889 17.896l33.309.094z" fill="#69d8e4"/></g></g><g><circle cx="289.181" cy="109.642" fill="#fcb143" r="17.904"/><path d="m303.993 141.622c-8.728-22.652-34.166-33.94-56.818-25.212-22.652 8.728-33.94 34.166-25.212 56.818l3.889 10.093c8.728 22.652 34.166 33.94 56.818 25.212s33.94-34.166 25.212-56.818z" fill="#fff0dc"/><path d="m307.882 151.715-3.889-10.093c-8.728-22.652-34.166-33.94-56.818-25.212-9.325 3.593-16.718 10.021-21.588 17.918 17.084-.554 33.654 8.944 41.309 25.424l21.424 46.126c18.811-10.491 27.53-33.484 19.562-54.163z" fill="#ffe4c0"/><path d="m247.175 116.41c-18.849 7.263-29.817 26.096-27.944 45.267l31.041-11.96c7.513-2.895 15.951.849 18.846 8.362 1.277 3.313 3.718 6.046 6.867 7.687l32.179 16.77c3.505-9.627 3.691-20.51-.282-30.821l-3.889-10.094c-8.728-22.652-34.166-33.939-56.818-25.211z" fill="#fcb143"/><path d="m307.882 151.715-3.889-10.094c-8.728-22.652-34.166-33.94-56.818-25.212-9.325 3.593-16.717 10.021-21.584 17.918 13.17-.426 26.03 5.126 34.739 15.241 3.893 1.366 7.188 4.358 8.788 8.51 1.277 3.313 3.718 6.046 6.867 7.687l32.179 16.77c3.505-9.626 3.691-20.509-.282-30.82z" fill="#fa9801"/></g><path d="m305.165 253.48c10.037-4.247 14.731-15.826 10.484-25.863-4.247-10.037-15.826-14.731-25.863-10.484l-98.522 55.509c-20.009 11.273-38.094 25.661-53.577 42.622l-2.796 3.063c-2.512 2.752.486 6.991 3.917 5.539z" fill="#fff0dc"/></g><g><g><g><g><g><g><g><path d="m498.303 420.266h-484.606c-7.565 0-13.697-6.133-13.697-13.697 0-7.564 6.132-13.697 13.697-13.697h484.607c7.564 0 13.697 6.132 13.697 13.697-.001 7.564-6.133 13.697-13.698 13.697z" fill="#d0f0f3"/></g></g></g></g></g></g></g><path d="m498.303 392.872h-27.254v27.393h27.254c7.564 0 13.697-6.132 13.697-13.697 0-7.563-6.132-13.696-13.697-13.696z" fill="#a5e4ef"/></g></g></svg>