<svg id="Capa_1" enable-background="new 0 0 512 512" height="512" viewBox="0 0 512 512" width="512" xmlns="http://www.w3.org/2000/svg"><g><path d="m455.236 305.422s-34.814 38.391-121.668 29.853h-155.123c-86.866 8.538-121.68-29.853-121.68-29.853 20.517-20.517 19.894-64.654 19.894-142.995s31.086-162.427 179.341-162.427 179.342 84.087 179.342 162.427-.623 122.479 19.894 142.995z" fill="#665e66"/><path d="m196.144 160.209v175.067h-17.7c-86.866 8.538-121.68-29.853-121.68-29.853 20.517-20.517 19.894-64.654 19.894-142.995s31.087-162.428 179.342-162.428c-68.668 0-59.856 90.843-59.856 160.209z" fill="#454045"/><ellipse cx="256.001" cy="405.323" fill="#8bc852" rx="108.6" ry="87.875"/><path d="m184.31 471.339c-7.155-5.086-13.462-10.919-18.747-17.351.274-1.022.486-2.094.598-3.178 4.101-38.254 19.37-71.186 19.37-71.186s-7.752 55.717-1.221 91.715z" fill="#6ea533"/><path d="m333.568 314.644c7.335 5.189 47.336 37.677 52.656 132.8.651 11.635-8.59 21.444-20.243 21.444-10.343 0-19.044-7.787-20.146-18.071-4.097-38.258-19.361-71.193-19.361-71.193h-140.942s-15.264 32.936-19.361 71.193c-1.101 10.284-9.803 18.071-20.146 18.071-11.654 0-20.894-9.808-20.243-21.444 5.32-95.124 45.321-127.611 52.656-132.8z" fill="#8bc852"/><path d="m178.434 314.65h18.136c-7.329 5.185-47.328 37.668-52.651 132.799-.025.386-.037.773-.037 1.147 0 7.903 4.55 14.808 11.218 18.149-2.742 1.371-5.821 2.144-9.074 2.144-11.256 0-20.28-9.162-20.28-20.268 0-.386.012-.773.037-1.172 5.31-95.131 45.322-127.614 52.651-132.799z" fill="#6ea533"/><circle cx="256.001" cy="303.356" fill="#f1b986" r="54.713"/><path d="m285.893 451.481h47.57c16.711 0 30.259 13.547 30.259 30.259 0 16.711-13.547 30.259-30.259 30.259h-95.761v-12.327c.001-26.616 21.576-48.191 48.191-48.191z" fill="#f1b986"/><path d="m303.256 451.484v60.516h30.202c8.364 0 15.917-3.39 21.402-8.862 5.472-5.472 8.862-13.051 8.862-21.402 0-16.703-13.549-30.252-30.264-30.252z" fill="#6bbef6"/><path d="m354.871 484.898c-5.472 5.472-13.051 8.862-21.402 8.862h-30.208v18.238h30.202c8.364 0 15.917-3.39 21.402-8.862 5.472-5.472 8.862-13.051 8.862-21.402 0-3.17-.491-6.226-1.396-9.098-1.483 4.68-4.073 8.863-7.46 12.262z" fill="#528ecb"/><path d="m274.308 499.672v12.328h-95.766c-8.364 0-15.917-3.39-21.402-8.862-5.472-5.472-8.862-13.051-8.862-21.402 0-16.703 13.549-30.252 30.264-30.252h47.565c26.625 0 48.201 21.576 48.201 48.188z" fill="#f1d0a5"/><path d="m274.308 499.672v12.328h-95.766c-8.364 0-15.917-3.39-21.402-8.862-5.472-5.472-8.862-13.051-8.862-21.402 0-3.178.486-6.232 1.396-9.112 1.483 4.687 4.076 8.887 7.466 12.278 5.485 5.472 13.038 8.862 21.402 8.862h95.405c.236 1.932.361 3.902.361 5.908z" fill="#f1b986"/><path d="m208.744 451.484v60.516h-30.202c-8.364 0-15.917-3.39-21.402-8.862-5.472-5.472-8.862-13.051-8.862-21.402 0-16.703 13.549-30.252 30.264-30.252z" fill="#6bbef6"/><path d="m208.744 512v-18.236h-30.202c-8.364 0-15.917-3.39-21.402-8.862-3.389-3.389-5.981-7.587-7.464-12.271-.907 2.874-1.398 5.932-1.398 9.105 0 8.351 3.39 15.93 8.863 21.402 5.484 5.472 13.038 8.862 21.402 8.862z" fill="#528ecb"/><path d="m179.138 395.754c-4.687 13.225-10.645 33.281-12.976 55.057-.549 5.148-2.992 9.66-6.606 12.901-1.346 1.209-2.842 2.231-4.462 3.029-.012.012-.025.012-.037.025-2.73 1.359-5.808 2.119-9.037 2.119-11.654 0-20.891-9.81-20.243-21.439 1.521-27.198 5.883-49.273 11.493-67.048 0 0 7.815.212 17.326 2.655 8.238 2.119 17.761 5.92 24.542 12.701z" fill="#f1d0a5"/><path d="m365.978 468.888c-5.173 0-9.934-1.944-13.537-5.173-3.615-3.241-6.058-7.753-6.606-12.901-2.331-21.776-8.289-41.832-12.976-55.057 14.609-14.609 41.869-15.357 41.869-15.357 5.609 17.775 9.972 39.85 11.492 67.048.648 11.63-8.588 21.44-20.242 21.44z" fill="#f1d0a5"/><path d="m372.598 467.781c-2.069.723-4.3 1.109-6.619 1.109-5.173 0-9.934-1.944-13.537-5.173-3.615-3.241-6.058-7.753-6.606-12.901-2.331-21.776-8.289-41.832-12.976-55.057 2.717-2.717 5.858-4.949 9.186-6.781 4.973 13.923 14.821 41.046 17.052 61.837.548 5.148 2.991 9.66 6.606 12.901 1.983 1.784 4.326 3.168 6.894 4.065z" fill="#f1b986"/><path d="m155.094 466.741c-.012.012-.025.012-.037.025-2.73 1.359-5.808 2.119-9.037 2.119-11.654 0-20.891-9.81-20.243-21.439 1.521-27.198 5.883-49.273 11.493-67.048 0 0 7.815.212 17.326 2.655-5.223 17.313-9.236 38.541-10.682 64.393-.025.386-.037.773-.037 1.147-.002 7.902 4.548 14.807 11.217 18.148z" fill="#f1b986"/><path d="m384.262 249.518c-1.882 37.008-31.498 66.474-68.531 68.219-29.13 1.371-58.26 1.745-87.402 1.109-.037 0-.087 0-.125-.012-10.645-.224-21.29-.598-31.935-1.097-37.02-1.745-66.636-31.212-68.531-68.219-1.359-26.375-1.496-52.738-.449-79.113h.012s30.426-1.546 68.843-10.196c34.141-7.678 74.589-20.978 105.588-43.788 0 0 32.333 53.985 82.978 53.985 1.06 26.374.91 52.737-.448 79.112z" fill="#f1d0a5"/><path d="m228.204 318.835c-10.645-.224-21.29-.598-31.935-1.097-37.02-1.745-66.636-31.212-68.531-68.219-1.359-26.375-1.496-52.738-.449-79.113h.012s30.426-1.546 68.843-10.196v.012c-8.575 73.541.1 157.291 32.06 158.613z" fill="#f1b986"/><path d="m256.004 263.077c-14.15 0-27.214-8.262-33.282-21.048-1.829-3.855-.188-8.464 3.668-10.293 3.857-1.829 8.463-.187 10.293 3.667 3.523 7.424 11.107 12.221 19.321 12.221s15.798-4.797 19.321-12.221c1.829-3.854 6.439-5.497 10.293-3.667 3.855 1.829 5.497 6.438 3.667 10.293-6.068 12.786-19.132 21.048-33.281 21.048z" fill="#da4a54"/><g fill="#eaac9d"><ellipse cx="336.002" cy="230.817" rx="19.067" ry="12.021"/><ellipse cx="176.004" cy="230.817" rx="19.067" ry="12.021"/></g><g fill="#454045"><path d="m196.392 210.235c-11.411 0-21.946-6.662-26.84-16.973-1.829-3.855-.187-8.463 3.668-10.293s8.463-.188 10.293 3.668c2.348 4.948 7.403 8.146 12.879 8.146 5.475 0 10.531-3.197 12.879-8.146 1.829-3.855 6.438-5.498 10.293-3.668 3.855 1.829 5.497 6.438 3.668 10.293-4.893 10.31-15.429 16.973-26.84 16.973z"/><path d="m315.613 210.235c-11.411 0-21.946-6.662-26.84-16.973-1.829-3.855-.187-8.463 3.668-10.293 3.856-1.83 8.463-.188 10.293 3.668 2.348 4.948 7.403 8.146 12.879 8.146s10.531-3.197 12.879-8.146c1.829-3.855 6.438-5.498 10.293-3.668 3.855 1.829 5.497 6.438 3.668 10.293-4.894 10.31-15.429 16.973-26.84 16.973z"/></g></g></svg>