<?xml version="1.0" encoding="iso-8859-1"?>
<!-- Generator: Adobe Illustrator 19.0.0, SVG Export Plug-In . SVG Version: 6.00 Build 0)  -->
<svg version="1.1" id="Capa_1" xmlns="http://www.w3.org/2000/svg" xmlns:xlink="http://www.w3.org/1999/xlink" x="0px" y="0px"
	 viewBox="0 0 512.001 512.001" style="enable-background:new 0 0 512.001 512.001;" xml:space="preserve">
<path style="fill:#FEDFC5;" d="M457.221,170.953c0,8.515-6.9,15.416-15.416,15.416H262.002c-8.515,0-15.416-6.9-15.416-15.416
	c0-8.504,6.9-15.405,15.416-15.405h179.803C450.321,155.548,457.221,162.449,457.221,170.953z"/>
<path style="fill:#FECBAA;" d="M286.615,155.548v30.821h-24.612c-8.515,0-15.416-6.9-15.416-15.416
	c0-8.504,6.9-15.405,15.416-15.405H286.615z"/>
<path style="fill:#FEDFC5;" d="M210.635,170.953c0,8.515-6.9,15.416-15.416,15.416H15.416C6.9,186.369,0,179.469,0,170.953
	c0-8.504,6.9-15.405,15.416-15.405h179.803C203.734,155.548,210.635,162.449,210.635,170.953z"/>
<path style="fill:#FECBAA;" d="M210.635,170.953c0,8.515-6.9,15.416-15.416,15.416h-24.612v-30.821h24.612
	C203.734,155.548,210.635,162.449,210.635,170.953z"/>
<rect x="182.69" y="155.55" style="fill:#FD6096;" width="91.83" height="166.87"/>
<g>
	<path style="fill:#FC3E81;" d="M274.528,198.011v124.405h-91.835v-42.63C263.56,266.804,274.528,198.011,274.528,198.011z"/>
	<path style="fill:#FC3E81;" d="M264.947,155.548c-10.241,9.054-23.69,14.559-38.391,14.559s-28.151-5.505-38.391-14.559H264.947z"
		/>
</g>
<path style="fill:#FEDFC5;" d="M272.473,112.103c0,25.36-20.558,45.918-45.918,45.918s-45.918-20.558-45.918-45.918
	c0-0.659,0.011-1.319,0.044-1.978c1.033-24.448,21.173-43.94,45.874-43.94s44.841,19.492,45.874,43.94
	C272.462,110.784,272.473,111.444,272.473,112.103z"/>
<path style="fill:#FECBAA;" d="M272.429,110.125c-0.714,0.077-1.45,0.11-2.187,0.11h-87.374c-0.736,0-1.472-0.033-2.187-0.11
	c1.033-24.448,21.173-43.94,45.874-43.94S271.397,85.678,272.429,110.125z"/>
<path style="fill:#C97F4C;" d="M267.538,31.282c0,4.472-1.076,8.688-2.982,12.41c-4.512,8.826-13.703,14.868-24.306,14.868
	c-14.177,0-25.827-10.81-27.15-24.632c-0.089-0.869-0.128-1.757-0.128-2.646c0-15.076,12.213-27.288,27.278-27.288
	C255.326,3.994,267.538,16.207,267.538,31.282z"/>
<g>
	<path style="fill:#AA6344;" d="M233.763,52.138c-1.149,0-2.316-0.257-3.415-0.8c-3.826-1.89-5.395-6.523-3.506-10.349l6.486-13.132
		c1.89-3.825,6.524-5.395,10.349-3.506c3.826,1.89,5.395,6.523,3.506,10.349l-6.486,13.132
		C239.35,50.557,236.611,52.138,233.763,52.138z"/>
	<path style="fill:#AA6344;" d="M264.557,43.692c-4.512,8.826-13.703,14.868-24.306,14.868c-14.177,0-25.827-10.81-27.15-24.632
		c2.054-0.247,4.137-0.375,6.24-0.375h14.424C244.999,33.553,255.583,37.226,264.557,43.692z"/>
</g>
<path style="fill:#C97F4C;" d="M270.247,98.149c5.988,0,10.418-5.522,9.188-11.382c-5.105-24.33-23.61-42.357-45.666-42.357h-14.426
	c-22.056,0-40.561,18.027-45.666,42.357c-1.23,5.861,3.2,11.382,9.188,11.382H270.247z"/>
<path style="fill:#4C60E1;" d="M488.337,479.827c-3.008,4.914-8.252,7.634-13.619,7.634c-2.833,0-5.697-0.762-8.283-2.339
	l-195.127-119.16c-13.454-8.211-28.917-12.558-44.679-12.558H122.684c-7.747,0-14.021,6.284-14.021,14.031v104.09
	c0,9.055-7.551,16.339-16.699,15.916c-8.571-0.412-15.164-7.788-15.164-16.369V367.435c0-25.353,20.542-45.894,45.884-45.894h35.644
	c6.727,0,12.816-2.73,17.225-7.139c4.409-4.409,7.139-10.497,7.139-17.225h91.841c0,20.758,10.807,40.023,28.526,50.85
	l179.983,109.9C490.552,462.51,492.921,472.317,488.337,479.827z"/>
<rect x="205.87" y="297.18" style="fill:#364EC6;" width="15.453" height="56.23"/>
<path style="fill:#FC3E81;" d="M228.147,216.047c-14.747,0-25.261-4.815-25.913-5.121c-3.863-1.812-5.525-6.413-3.713-10.277
	c1.808-3.853,6.389-5.518,10.245-3.727c0.309,0.14,18.528,8.205,38.536-0.124c3.938-1.641,8.463,0.224,10.103,4.163
	c1.64,3.94-0.224,8.462-4.163,10.102C244.274,214.797,235.661,216.047,228.147,216.047z"/>
<g>
	<path style="fill:#AA6344;" d="M208.474,125.611c-4.268,0-7.773-3.459-7.773-7.726s3.412-7.726,7.68-7.726h0.093
		c4.268,0,7.726,3.459,7.726,7.726C216.2,122.151,212.741,125.611,208.474,125.611z"/>
	<path style="fill:#AA6344;" d="M244.729,125.611c-4.268,0-7.772-3.459-7.772-7.726s3.412-7.726,7.68-7.726h0.092
		c4.268,0,7.726,3.459,7.726,7.726C252.456,122.151,248.997,125.611,244.729,125.611z"/>
	<path style="fill:#AA6344;" d="M203.541,100.426c-4.268,0-7.726-3.459-7.726-7.726V77.561c0-4.267,3.459-7.726,7.726-7.726
		s7.726,3.459,7.726,7.726V92.7C211.268,96.967,207.809,100.426,203.541,100.426z"/>
	<path style="fill:#AA6344;" d="M223.286,100.426c-4.268,0-7.726-3.459-7.726-7.726v-7.24c0-4.267,3.459-7.726,7.726-7.726
		c4.268,0,7.726,3.459,7.726,7.726v7.24C231.012,96.967,227.553,100.426,223.286,100.426z"/>
</g>
<g>
	<path style="fill:#E3F4FF;" d="M116.175,480.467v17.984c0,5.277-4.278,9.555-9.555,9.555H43.77c-3.508,0-6.352-2.844-6.352-6.352
		v-1.363c0-14.457,11.72-26.176,26.176-26.176h46.228C113.332,474.115,116.175,476.96,116.175,480.467z"/>
	<path style="fill:#E3F4FF;" d="M433.244,498.451L433.244,498.451c0,5.277,4.278,9.555,9.555,9.555h62.85
		c3.508,0,6.352-2.844,6.352-6.352v-1.363c0-14.457-11.72-26.176-26.176-26.176H457.58
		C444.139,474.115,433.244,485.009,433.244,498.451z"/>
</g>
<g>
</g>
<g>
</g>
<g>
</g>
<g>
</g>
<g>
</g>
<g>
</g>
<g>
</g>
<g>
</g>
<g>
</g>
<g>
</g>
<g>
</g>
<g>
</g>
<g>
</g>
<g>
</g>
<g>
</g>
</svg>
