<?xml version="1.0" encoding="iso-8859-1"?>
<!-- Generator: Adobe Illustrator 19.0.0, SVG Export Plug-In . SVG Version: 6.00 Build 0)  -->
<svg version="1.1" id="Capa_1" xmlns="http://www.w3.org/2000/svg" xmlns:xlink="http://www.w3.org/1999/xlink" x="0px" y="0px"
	 viewBox="0 0 512.001 512.001" style="enable-background:new 0 0 512.001 512.001;" xml:space="preserve">
<path style="fill:#FEDFC5;" d="M353.502,129.47l-44.537,69.371l-6.214,9.678c-2.555,3.996-6.888,6.173-11.303,6.173
	c-2.483,0-4.987-0.685-7.235-2.126c-6.234-4.006-8.043-12.304-4.047-18.538l22.718-35.38l28.032-43.679
	c9.095-14.164,6.765-32.795-5.539-44.282l-50.812-47.46c-5.416-5.059-5.702-13.551-0.644-18.968
	c5.059-5.416,13.551-5.702,18.968-0.654l50.812,47.47C365.479,71.412,369.598,104.391,353.502,129.47z"/>
<path style="fill:#FECBAA;" d="M308.965,173.343v25.498l-6.214,9.678c-2.555,3.996-6.888,6.173-11.303,6.173
	c-2.483,0-4.987-0.685-7.235-2.126c-6.234-4.006-8.043-12.304-4.047-18.538l22.718-35.38
	C306.635,162.408,308.965,167.609,308.965,173.343z"/>
<path style="fill:#FEDFC5;" d="M181.404,114.968l29.31,45.661l21.441,33.398c4.006,6.234,2.187,14.532-4.047,18.538
	c-2.238,1.441-4.752,2.126-7.235,2.126c-4.415,0-8.738-2.177-11.303-6.173l-3.199-4.987l-47.542-74.061
	c-16.106-25.079-11.977-58.058,9.801-78.395l50.812-47.47c5.416-5.048,13.899-4.762,18.957,0.654
	c5.059,5.416,4.772,13.909-0.644,18.968l-50.812,47.46C174.638,82.173,172.308,100.804,181.404,114.968z"/>
<path style="fill:#FECBAA;" d="M232.154,194.027c4.006,6.234,2.187,14.532-4.047,18.538c-2.238,1.441-4.752,2.126-7.235,2.126
	c-4.415,0-8.738-2.177-11.303-6.173l-3.199-4.987v-30.189c0-4.783,1.615-9.198,4.343-12.713L232.154,194.027z"/>
<path style="fill:#FD6096;" d="M297.723,173.343v107.224h-80.112V173.343c0-3.648,2.034-6.817,5.038-8.441
	c1.349-0.726,2.902-1.145,4.548-1.145h60.939c0.695,0,1.38,0.072,2.034,0.225C294.494,164.911,297.723,168.744,297.723,173.343z"/>
<g>
	<path style="fill:#FC3E81;" d="M290.171,163.981c-9.095,8.186-21.124,13.173-34.297,13.173c-12.662,0-24.272-4.609-33.224-12.253
		c1.349-0.726,2.902-1.145,4.548-1.145h60.939C288.832,163.757,289.517,163.828,290.171,163.981z"/>
	<path style="fill:#FC3E81;" d="M297.723,215.142v65.424h-80.108v-12.307c67.169-8.818,79.993-53.156,79.993-53.156L297.723,215.142
		z"/>
</g>
<path style="fill:#4C60E1;" d="M297.729,494.466c0,7.644-6.377,13.794-14.093,13.434c-7.232-0.34-12.795-6.573-12.795-13.815
	V338.898c0-8.53-6.923-15.453-15.453-15.453h-27.207c-6.233,0-12.311,1.988-17.348,5.676l-31.534,23.107
	c-3.894,2.854-3.843,6.882-3.637,8.479c0.206,1.597,1.164,5.501,5.656,7.283l70.176,27.794c6.676,2.648,10.446,10.013,8.19,16.833
	c-1.885,5.728-7.17,9.261-12.774,9.261c-1.648,0-3.317-0.309-4.945-0.948l-70.547-27.939c-12.146-4.821-20.459-15.339-22.334-28.227
	c-1.947-13.372,4.007-26.672,14.907-34.656l43.051-31.534c3.317-2.442,5.965-5.594,7.778-9.169s2.792-7.572,2.792-11.692h80.107
	L297.729,494.466z"/>
<rect x="232.47" y="277.71" style="fill:#364EC6;" width="15.453" height="45.73"/>
<path style="fill:#FEDFC5;" d="M295.935,125.862c0,22.126-17.935,40.051-40.061,40.051c-22.115,0-40.051-17.925-40.051-40.051
	c0-0.347,0-0.695,0.02-1.032c0-0.235,0.01-0.47,0.02-0.695c0.899-21.328,18.467-38.324,40.01-38.324
	c21.553,0,39.121,16.995,40.02,38.324c0.01,0.225,0.02,0.46,0.02,0.695C295.935,125.167,295.935,125.515,295.935,125.862z"/>
<path style="fill:#FECBAA;" d="M295.914,124.83c-0.634,0.071-1.277,0.102-1.921,0.102h-76.228c-0.644,0-1.288-0.031-1.921-0.102
	c0-0.235,0.01-0.47,0.02-0.695c0.899-21.328,18.467-38.324,40.01-38.324c21.553,0,39.121,16.995,40.02,38.324
	C295.904,124.36,295.914,124.595,295.914,124.83z"/>
<path style="fill:#C97F4C;" d="M297.723,53.119c0,5.243-1.697,10.087-4.578,14.021c-4.313,5.927-11.313,9.78-19.223,9.78
	c-12.315,0-22.442-9.361-23.669-21.349c-0.082-0.807-0.123-1.625-0.123-2.453c0-13.142,10.649-23.802,23.791-23.802
	C287.074,29.318,297.723,39.977,297.723,53.119z"/>
<g>
	<path style="fill:#AA6344;" d="M268.262,72.304c-1.149,0-2.316-0.257-3.416-0.8c-3.826-1.89-5.395-6.524-3.506-10.35l5.658-11.454
		c1.891-3.824,6.525-5.396,10.349-3.505c3.826,1.889,5.395,6.523,3.506,10.349l-5.658,11.454
		C273.849,70.724,271.11,72.304,268.262,72.304z"/>
	<path style="fill:#AA6344;" d="M250.253,55.572h11.916c11.497,0,22.248,4.241,30.976,11.569c-4.313,5.927-11.313,9.78-19.223,9.78
		C261.607,76.921,251.479,67.559,250.253,55.572z"/>
</g>
<path style="fill:#C97F4C;" d="M293.988,113.689c5.223,0,9.087-4.816,8.015-9.929c-4.453-21.223-20.595-36.948-39.834-36.948
	h-12.584c-19.239,0-35.381,15.725-39.834,36.948c-1.073,5.112,2.791,9.929,8.015,9.929
	C217.766,113.689,293.988,113.689,293.988,113.689z"/>
<path style="fill:#FC3E81;" d="M257.897,215.853c-12.292,0-21.07-4.02-21.614-4.276c-3.863-1.812-5.525-6.414-3.713-10.277
	c1.807-3.851,6.381-5.516,10.238-3.73c0.278,0.124,14.464,6.344,29.995-0.12c3.939-1.64,8.463,0.223,10.103,4.164
	c1.64,3.939-0.224,8.462-4.163,10.102C271.299,214.815,264.145,215.853,257.897,215.853z"/>
<g>
	<path style="fill:#AA6344;" d="M239.737,140.235c-0.014,0-0.028,0-0.042,0c-4.267-0.023-7.755-3.501-7.732-7.768
		c0.023-4.253,3.431-7.686,7.678-7.686c0.014,0,0.028,0,0.042,0l0.095,0.001c4.267,0.023,7.707,3.501,7.685,7.768
		C247.439,136.803,243.984,140.235,239.737,140.235z"/>
	<path style="fill:#AA6344;" d="M273.18,140.235c-0.014,0-0.028,0-0.042,0c-4.267-0.023-7.755-3.501-7.732-7.768
		c0.023-4.253,3.431-7.686,7.678-7.686c0.014,0,0.028,0,0.042,0l0.095,0.001c4.267,0.023,7.707,3.501,7.685,7.768
		C280.882,136.803,277.427,140.235,273.18,140.235z"/>
	<path style="fill:#AA6344;" d="M240.193,115.072c-4.268,0-7.726-3.459-7.726-7.726V95.551c0-4.267,3.459-7.726,7.726-7.726
		s7.726,3.459,7.726,7.726v11.795C247.919,111.613,244.46,115.072,240.193,115.072z"/>
</g>
<g>
	<path style="fill:#E3F4FF;" d="M265.429,489.201v14.889c0,4.369,3.542,7.911,7.911,7.911h52.033c2.904,0,5.259-2.354,5.259-5.259
		v-1.128c0-11.969-9.703-21.671-21.671-21.671h-38.272C267.784,483.942,265.429,486.297,265.429,489.201z"/>
	<path style="fill:#E3F4FF;" d="M252.808,391.198l13.501,6.276c3.962,1.842,5.681,6.546,3.839,10.508l-21.932,47.184
		c-1.224,2.634-4.351,3.776-6.985,2.552l-1.023-0.476c-10.853-5.045-15.562-17.933-10.517-28.787l16.132-34.706
		C247.047,391.116,250.174,389.973,252.808,391.198z"/>
</g>
<g>
</g>
<g>
</g>
<g>
</g>
<g>
</g>
<g>
</g>
<g>
</g>
<g>
</g>
<g>
</g>
<g>
</g>
<g>
</g>
<g>
</g>
<g>
</g>
<g>
</g>
<g>
</g>
<g>
</g>
</svg>
