<svg height="512" viewBox="0 0 512 512" width="512" xmlns="http://www.w3.org/2000/svg"><g id="Flat"><path d="m368 312h-224l-4.417-39.753a123.055 123.055 0 0 1 9.2-62.069 123.059 123.059 0 0 0 9.8-54.623l-1.384-27.685a98.929 98.929 0 0 1 98.801-103.87 98.929 98.929 0 0 1 98.806 103.87l-1.384 27.685a123.059 123.059 0 0 0 9.8 54.623 123.055 123.055 0 0 1 9.2 62.069z" fill="#92563a"/><path d="m376 320v168h-240v-168a40 40 0 0 1 40-40h36.8a11.194 11.194 0 0 0 11.2-11.2v-52.8h64v52.8a11.194 11.194 0 0 0 11.2 11.2h36.8a40 40 0 0 1 40 40z" fill="#fec9a3"/><path d="m300.38 312h-88.76l4.38 48h80z" fill="#e0e0de"/><path d="m376 320v168h-240v-168a40 40 0 0 1 40-40h24l5.01 17.54a53.031 53.031 0 0 0 101.98 0l5.01-17.54h24a39.975 39.975 0 0 1 40 40z" fill="#f59898"/><path d="m288 216v40.51a72.1 72.1 0 0 1 -64 0v-40.51z" fill="#feb784"/><path d="m328 128v40a72.006 72.006 0 0 1 -72 72c-.42 0-.83 0-1.25-.01a72.013 72.013 0 0 1 -70.75-71.99v-40a108.535 108.535 0 0 0 36.9-41.8l3.1-6.2 4.54 3.79a199.015 199.015 0 0 0 40.38 26.09 198.9 198.9 0 0 0 59.08 18.12z" fill="#fec9a3"/><path d="m328 128v40a72.006 72.006 0 0 1 -72 72c-.42 0-.83 0-1.25-.01a108.606 108.606 0 0 0 16.72-58.07v-48.51a109.24 109.24 0 0 0 -2.55-23.53 198.9 198.9 0 0 0 59.08 18.12z" fill="#fec093"/><path d="m220 160a12 12 0 1 1 12-12 12.013 12.013 0 0 1 -12 12z" fill="#8c5338"/><path d="m292 160a12 12 0 1 1 12-12 12.013 12.013 0 0 1 -12 12z" fill="#8c5338"/><path d="m256 200a24.028 24.028 0 0 1 -24-24h16a8 8 0 0 0 16 0h16a24.028 24.028 0 0 1 -24 24z" fill="#f7a468"/><path d="m376 320v168h-240v-32.23c90.68-23.22 175.78-69.79 236.76-151.56a39.906 39.906 0 0 1 3.24 15.79z" fill="#ed9191"/><g fill="#e07f7f"><path d="m192 488h-16v-53.2a70.573 70.573 0 0 1 10.879-96.946l10.242 12.292a54.544 54.544 0 0 0 -6.975 76.733 8 8 0 0 1 1.854 5.121z"/><path d="m336 488h-16v-56a8 8 0 0 1 1.854-5.121 54.544 54.544 0 0 0 -6.975-76.733l10.242-12.292a70.573 70.573 0 0 1 10.879 96.946z"/></g></g></svg>