<svg height="512" viewBox="0 0 512 512" width="512" xmlns="http://www.w3.org/2000/svg"><g id="Flat"><path d="m184 96h8a0 0 0 0 1 0 0v32a0 0 0 0 1 0 0h-8a16 16 0 0 1 -16-16 16 16 0 0 1 16-16z" fill="#feb784"/><path d="m336 96h8a0 0 0 0 1 0 0v32a0 0 0 0 1 0 0h-8a16 16 0 0 1 -16-16 16 16 0 0 1 16-16z" fill="#feb784" transform="matrix(-1 0 0 -1 664 224)"/><path d="m368 240-40 32-24-16v80h-96v-72h-40v-24a32 32 0 0 1 32-32h116.12a48.135 48.135 0 0 1 33.94 14.06z" fill="#f35244"/><path d="m368 240-40 32-24-16v80h-96v-14.24c45.6-23.23 87.8-59.12 121.86-111.74a47.89 47.89 0 0 1 20.2 12.04z" fill="#e84d40"/><path d="m208 456-12.686 12.686a11.314 11.314 0 0 0 -3.314 8 11.313 11.313 0 0 0 11.314 11.314h52.686v-32z" fill="#e0e0de"/><path d="m304 456 12.686 12.686a11.314 11.314 0 0 1 3.314 8 11.313 11.313 0 0 1 -11.314 11.314h-52.686v-32z" fill="#e0e0de"/><path d="m208 384h48v72h-48z" fill="#fec9a3"/><path d="m256 384h48v72h-48z" fill="#fec9a3"/><path d="m248 456h16v32h-16z" fill="#c7c7c5"/><path d="m208 336h96v48h-96z" fill="#92563a"/><path d="m248 360h16v24h-16z" fill="#78462f"/><path d="m288 208-7.12 10.69a29.912 29.912 0 0 1 -49.76 0l-7.12-10.69a8 8 0 0 0 8-8v-24h48v24a8 8 0 0 0 8 8z" fill="#fec9a3"/><path d="m280.62 203.09a64.18 64.18 0 0 1 -49.24 0 7.965 7.965 0 0 0 .62-3.09v-24h48v24a7.965 7.965 0 0 0 .62 3.09z" fill="#feb784"/><path d="m168 264h40v104h-40z" fill="#fec9a3"/><path d="m416 352a55.75 55.75 0 1 1 -4.12-21.11 55.755 55.755 0 0 1 4.12 21.11z" fill="#e0e0de"/><path d="m411.88 330.89a55.7 55.7 0 0 0 -8.11-13.81l-35.77 18.767v-39.277a56.425 56.425 0 0 0 -16 0v39.076l-35.52-18.876a55.681 55.681 0 0 0 -8.21 13.75l41.669 22.149-34.739 32.921a56.012 56.012 0 0 0 11.34 11.31l34.478-32.685 32.382 32.735a55.815 55.815 0 0 0 11.34-11.27l-33.229-33.609z" fill="#c7c7c5"/><path d="m339.75 338.125 5.833 29.75h30.417l4.333-29.75-20.333-10.125z" fill="#4d5e78"/><path d="m368 240 19.884 19.884a48 48 0 0 1 13.821 29.165l6.295 62.951h-40l-8-56-32-24z" fill="#fec9a3"/><path d="m320 96v32a64 64 0 1 1 -128 0v-32a64 64 0 1 1 128 0z" fill="#fec9a3"/><path d="m320 96v32a64.031 64.031 0 0 1 -85.65 60.24 71.75 71.75 0 0 0 32.34-60v-31.92a71.886 71.886 0 0 0 -32.9-60.36 64.007 64.007 0 0 1 86.21 60.04z" fill="#fec093"/><circle cx="228" cy="116" fill="#7a432a" r="12"/><circle cx="284" cy="116" fill="#7a432a" r="12"/><path d="m256 160a24.028 24.028 0 0 1 -24-24h16a8 8 0 0 0 16 0h16a24.028 24.028 0 0 1 -24 24z" fill="#f7a468"/><path d="m320 104-32-40h-64l-32 40-.359-1.8a65.382 65.382 0 0 1 64.112-78.2 65.382 65.382 0 0 1 65.057 71.888z" fill="#f7a116"/><path d="m240 64a40 40 0 0 1 -40-40h76a40.025 40.025 0 0 1 40.029 40z" fill="#ffb531"/><path d="m208 384h96v16h-96z" fill="#feb784"/><path d="m248 384h16v72h-16z" fill="#f2af7e"/></g></svg>